<?xml version="1.0" encoding="UTF-8"?><svg id="Layer_2" xmlns="http://www.w3.org/2000/svg" xmlns:xlink="http://www.w3.org/1999/xlink" viewBox="0 0 122.5 122.5"><defs><style>.cls-1{fill:url(#linear-gradient);}.cls-2{fill:url(#linear-gradient-8);}.cls-3{fill:url(#linear-gradient-9);}.cls-4{fill:url(#linear-gradient-3);}.cls-5{fill:url(#linear-gradient-4);}.cls-6{fill:url(#linear-gradient-2);}.cls-7{fill:url(#linear-gradient-6);}.cls-8{fill:url(#linear-gradient-7);}.cls-9{fill:url(#linear-gradient-5);}</style><linearGradient id="linear-gradient" x1="61.25" y1="443.2" x2="61.25" y2="425.7" gradientTransform="translate(0 443.2) scale(1 -1)" gradientUnits="userSpaceOnUse"><stop offset="0" stop-color="#fac86a"/><stop offset="1" stop-color="#f1674c"/></linearGradient><linearGradient id="linear-gradient-2" y1="338.2" y2="320.7" xlink:href="#linear-gradient"/><linearGradient id="linear-gradient-3" x1="8.75" y1="386.33" x2="8.75" y2="377.58" xlink:href="#linear-gradient"/><linearGradient id="linear-gradient-4" x1="113.75" y1="386.33" x2="113.75" y2="377.58" xlink:href="#linear-gradient"/><linearGradient id="linear-gradient-5" x1="61.37" y1="421.09" x2="61.37" y2="342.34" xlink:href="#linear-gradient"/><linearGradient id="linear-gradient-6" x1="98.49" y1="426.79" x2="98.49" y2="411.61" xlink:href="#linear-gradient"/><linearGradient id="linear-gradient-7" x1="24.14" y1="352.31" x2="24.14" y2="337.37" xlink:href="#linear-gradient"/><linearGradient id="linear-gradient-8" x1="24.25" y1="426.32" x2="24.25" y2="411.61" xlink:href="#linear-gradient"/><linearGradient id="linear-gradient-9" x1="98.36" y1="352.31" x2="98.36" y2="337.37" xlink:href="#linear-gradient"/></defs><g id="Layer_1-2"><path class="cls-1" d="M61.25,17.5c1.16,0,2.27-.46,3.09-1.28,.82-.82,1.28-1.93,1.28-3.09V4.38c0-1.16-.46-2.27-1.28-3.09-.82-.82-1.93-1.28-3.09-1.28s-2.27,.46-3.09,1.28c-.82,.82-1.28,1.93-1.28,3.09V13.12c0,1.16,.46,2.27,1.28,3.09,.82,.82,1.93,1.28,3.09,1.28Z"/><path class="cls-6" d="M61.25,105c-1.16,0-2.27,.46-3.09,1.28-.82,.82-1.28,1.93-1.28,3.09v8.75c0,1.16,.46,2.27,1.28,3.09,.82,.82,1.93,1.28,3.09,1.28s2.27-.46,3.09-1.28c.82-.82,1.28-1.93,1.28-3.09v-8.75c0-1.16-.46-2.27-1.28-3.09-.82-.82-1.93-1.28-3.09-1.28Z"/><path class="cls-4" d="M13.12,56.88H4.38c-1.16,0-2.27,.46-3.09,1.28-.82,.82-1.28,1.93-1.28,3.09s.46,2.27,1.28,3.09c.82,.82,1.93,1.28,3.09,1.28H13.12c1.16,0,2.27-.46,3.09-1.28,.82-.82,1.28-1.93,1.28-3.09s-.46-2.27-1.28-3.09c-.82-.82-1.93-1.28-3.09-1.28Z"/><path class="cls-5" d="M118.12,56.88h-8.75c-1.16,0-2.27,.46-3.09,1.28-.82,.82-1.28,1.93-1.28,3.09s.46,2.27,1.28,3.09c.82,.82,1.93,1.28,3.09,1.28h8.75c1.16,0,2.27-.46,3.09-1.28,.82-.82,1.28-1.93,1.28-3.09s-.46-2.27-1.28-3.09c-.82-.82-1.93-1.28-3.09-1.28Z"/><path class="cls-9" d="M90.96,80.46c-.44-.37-.95-.65-1.5-.82-.55-.17-1.13-.23-1.7-.18-.57,.05-1.13,.22-1.64,.49-.51,.27-.96,.64-1.33,1.08-.86,1.03-1.78,2.01-2.76,2.93-5.34,4.95-12.27,7.84-19.54,8.14-7.27,.31-14.42-1.99-20.15-6.48-5.73-4.49-9.68-10.87-11.14-18-1.46-7.13-.32-14.55,3.2-20.93,3.52-6.37,9.19-11.29,16.01-13.85,6.81-2.57,14.32-2.63,21.17-.17,6.85,2.46,12.6,7.29,16.22,13.6,3.62,6.32,4.87,13.72,3.52,20.87-.22,1.16,.03,2.36,.69,3.34,.66,.98,1.69,1.65,2.85,1.87,1.16,.22,2.36-.03,3.34-.69,.98-.67,1.65-1.69,1.87-2.85,1.74-9.2,.15-18.71-4.49-26.85-4.64-8.13-12.02-14.34-20.83-17.52-8.8-3.18-18.45-3.12-27.22,.17-8.76,3.29-16.07,9.6-20.6,17.79-4.53,8.19-6,17.73-4.14,26.9,1.86,9.17,6.93,17.38,14.3,23.16,7.37,5.77,16.55,8.74,25.9,8.36,9.35-.38,18.26-4.08,25.13-10.44,1.27-1.18,2.47-2.43,3.59-3.76,.36-.45,.62-.97,.78-1.53,.16-.56,.2-1.14,.13-1.71-.07-.57-.25-1.13-.54-1.63-.29-.5-.67-.94-1.12-1.3Z"/><path class="cls-7" d="M95.29,31.59c.58,0,1.15-.11,1.68-.32,.53-.22,1.02-.54,1.43-.94l6.17-6.21c.46-.39,.83-.88,1.09-1.42,.26-.54,.41-1.13,.43-1.74,.02-.6-.08-1.2-.3-1.76-.22-.56-.55-1.07-.98-1.5-.43-.43-.94-.76-1.5-.98-.56-.22-1.16-.32-1.77-.3-.6,.02-1.19,.17-1.74,.43-.54,.26-1.02,.63-1.42,1.09l-6.21,6.17c-.41,.41-.73,.89-.96,1.42-.22,.53-.34,1.11-.34,1.68s.11,1.15,.34,1.68c.22,.53,.55,1.02,.96,1.42,.41,.4,.89,.73,1.43,.94,.53,.22,1.1,.33,1.68,.32Z"/><path class="cls-8" d="M24.11,92.18l-6.17,6.21c-.82,.82-1.27,1.93-1.27,3.08s.46,2.27,1.27,3.08c.41,.41,.89,.73,1.43,.94,.53,.22,1.1,.33,1.68,.32,1.15,0,2.25-.46,3.06-1.27l6.21-6.17c.82-.82,1.29-1.94,1.29-3.11s-.46-2.28-1.29-3.11c-.82-.82-1.94-1.29-3.11-1.29s-2.28,.46-3.11,1.29Z"/><path class="cls-2" d="M24.11,30.32c.41,.4,.89,.73,1.43,.94,.53,.22,1.1,.33,1.68,.33,.57,0,1.15-.11,1.68-.33,.53-.22,1.02-.54,1.43-.94,.41-.41,.74-.89,.96-1.42,.22-.53,.34-1.11,.34-1.68s-.11-1.15-.34-1.68c-.22-.53-.55-1.02-.96-1.42l-6.21-6.17c-.84-.72-1.91-1.09-3.01-1.05-1.1,.04-2.15,.5-2.93,1.28-.78,.78-1.24,1.82-1.28,2.92-.04,1.1,.33,2.18,1.05,3.01l6.17,6.21Z"/><path class="cls-3" d="M98.39,92.18c-.82-.82-1.94-1.29-3.11-1.29s-2.28,.46-3.11,1.29-1.29,1.94-1.29,3.11,.46,2.28,1.29,3.11l6.21,6.17c.81,.81,1.91,1.26,3.06,1.27,.58,0,1.15-.11,1.68-.32,.53-.22,1.02-.54,1.43-.94,.82-.82,1.27-1.93,1.27-3.08s-.46-2.26-1.27-3.08l-6.17-6.21Z"/></g></svg>