<?xml version="1.0" encoding="UTF-8"?><svg id="Layer_2" xmlns="http://www.w3.org/2000/svg" xmlns:xlink="http://www.w3.org/1999/xlink" viewBox="0 0 96.15 96.19"><defs><style>.cls-1{fill:url(#linear-gradient);}</style><linearGradient id="linear-gradient" x1="48.08" y1="415.2" x2="48.08" y2="319.01" gradientTransform="translate(0 415.2) scale(1 -1)" gradientUnits="userSpaceOnUse"><stop offset="0" stop-color="#fafafc"/><stop offset="1" stop-color="#cbd2e7"/></linearGradient></defs><g id="Layer_1-2"><path class="cls-1" d="M90.01,53.96c-3.31,.88-6.72,1.32-10.15,1.32-10.43,0-20.22-4.05-27.58-11.41-4.83-4.86-8.3-10.9-10.07-17.52-1.77-6.62-1.77-13.59-.01-20.21,.22-.83,.22-1.7,0-2.53-.22-.83-.66-1.58-1.26-2.19-.61-.61-1.36-1.04-2.19-1.26-.83-.22-1.7-.22-2.53,0-8.29,2.21-15.85,6.56-21.93,12.61C-4.76,31.82-4.76,62.82,14.28,81.87c4.53,4.55,9.91,8.16,15.84,10.62,5.93,2.46,12.29,3.71,18.71,3.7,6.42,.02,12.78-1.24,18.7-3.69,5.93-2.46,11.31-6.06,15.83-10.61,6.06-6.08,10.41-13.65,12.62-21.94,.22-.83,.22-1.7,0-2.52-.22-.83-.66-1.58-1.26-2.18s-1.36-1.04-2.19-1.26c-.83-.22-1.7-.23-2.52,0Zm-13.54,21.01c-3.62,3.64-7.93,6.53-12.67,8.49-4.74,1.96-9.83,2.97-14.96,2.96-5.14,.01-10.22-.99-14.97-2.96-4.74-1.97-9.05-4.85-12.67-8.49-15.23-15.24-15.23-40.04,0-55.27,2.94-2.94,6.34-5.39,10.06-7.24-.55,7.03,.43,14.1,2.87,20.71,2.44,6.62,6.27,12.63,11.25,17.63,4.99,4.99,11,8.84,17.62,11.27,6.62,2.44,13.69,3.41,20.72,2.85-1.87,3.72-4.32,7.11-7.25,10.06Z"/></g></svg>