<?xml version="1.0" encoding="UTF-8"?><svg id="Layer_2" xmlns="http://www.w3.org/2000/svg" xmlns:xlink="http://www.w3.org/1999/xlink" viewBox="0 0 122.5 100.65"><defs><style>.cls-1{fill:url(#linear-gradient);}.cls-2{fill:url(#linear-gradient-3);}.cls-3{fill:url(#linear-gradient-4);}.cls-4{fill:url(#linear-gradient-2);}.cls-5{fill:url(#linear-gradient-6);}.cls-6{fill:url(#linear-gradient-5);}</style><linearGradient id="linear-gradient" x1="56.88" y1="403.24" x2="56.88" y2="320.15" gradientTransform="translate(0 420.8) scale(1 -1)" gradientUnits="userSpaceOnUse"><stop offset="0" stop-color="#a1d2fa"/><stop offset="1" stop-color="#dce2f6"/></linearGradient><linearGradient id="linear-gradient-2" x1="80.52" y1="403.24" x2="80.52" y2="364.45" gradientTransform="translate(0 420.8) scale(1 -1)" gradientUnits="userSpaceOnUse"><stop offset="0" stop-color="#fac86a"/><stop offset="1" stop-color="#f1674c"/></linearGradient><linearGradient id="linear-gradient-3" x1="115.93" y1="381.42" x2="115.93" y2="372.67" xlink:href="#linear-gradient-2"/><linearGradient id="linear-gradient-4" x1="78.74" y1="420.8" x2="78.74" y2="407.67" xlink:href="#linear-gradient-2"/><linearGradient id="linear-gradient-5" x1="104.49" y1="409.03" x2="104.49" y2="397.39" xlink:href="#linear-gradient-2"/><linearGradient id="linear-gradient-6" x1="54.02" y1="409.02" x2="54.02" y2="397.44" xlink:href="#linear-gradient-2"/></defs><g id="Layer_1-2"><path class="cls-1" d="M101.72,56.35c1.29-2.29,2.22-4.77,2.75-7.35,1.24-6.1,.26-12.43-2.75-17.88-3-5.45-7.85-9.65-13.66-11.85-5.82-2.21-12.23-2.28-18.1-.2-5.86,2.08-10.79,6.18-13.92,11.56-19.77,.35-36.05,13.78-38.28,30.93-4.77,.62-9.16,2.91-12.41,6.45-3.25,3.55-5.14,8.12-5.35,12.93,.31,5.51,2.78,10.67,6.88,14.36,4.1,3.69,9.49,5.61,14.99,5.33h43.75c1.17,0,2.28-.46,3.1-1.28s1.28-1.93,1.28-3.09-.46-2.27-1.28-3.09c-.82-.82-1.93-1.28-3.1-1.28H21.87c-3.18,.26-6.34-.74-8.79-2.79-2.45-2.05-4.01-4.97-4.33-8.15,.32-3.18,1.88-6.1,4.33-8.15,2.45-2.05,5.61-3.05,8.79-2.79,1.17,0,2.28-.46,3.1-1.28s1.28-1.93,1.28-3.09c0-14.48,13.74-26.25,30.62-26.25,6.27-.22,12.45,1.48,17.72,4.89,5.27,3.4,9.36,8.34,11.73,14.15,.26,.79,.74,1.49,1.38,2.02,.64,.53,1.42,.86,2.25,.96,1.6,.21,3.17,.61,4.68,1.18,2.94,1.02,5.5,2.9,7.35,5.4,1.85,2.5,2.9,5.5,3.02,8.6-.31,4.34-2.33,8.39-5.6,11.25-3.28,2.87-7.55,4.33-11.9,4.06h-4.38c-1.16,0-2.27,.46-3.09,1.28-.82,.82-1.28,1.93-1.28,3.09s.46,2.27,1.28,3.09c.82,.82,1.93,1.28,3.09,1.28h4.38c6.67,.27,13.17-2.11,18.09-6.61s7.85-10.78,8.16-17.45c-.07-4.13-1.21-8.16-3.32-11.71s-5.12-6.48-8.71-8.5Zm-35.57-24.68c2.42-2.51,5.53-4.24,8.93-4.97,3.41-.73,6.95-.43,10.19,.87,3.23,1.3,6,3.53,7.96,6.41,1.95,2.88,3.01,6.28,3.02,9.76-.01,1.17-.12,2.35-.35,3.5-.44,2.01-1.24,3.92-2.36,5.64-2.54-5.47-6.35-10.24-11.12-13.94-4.76-3.69-10.34-6.19-16.27-7.28Z"/><path class="cls-4" d="M101.72,56.35c1.29-2.29,2.22-4.77,2.76-7.35,1.23-6.1,.25-12.43-2.76-17.88-3-5.45-7.85-9.65-13.66-11.85-5.82-2.21-12.23-2.28-18.1-.2-5.86,2.08-10.79,6.18-13.92,11.56,1.74-.07,6.19,.05,10.11,1.05,2.42-2.51,5.53-4.24,8.93-4.97,3.41-.73,6.95-.43,10.19,.87,3.23,1.3,6,3.53,7.96,6.41,1.95,2.88,3.01,6.28,3.02,9.76-.01,1.17-.12,2.35-.35,3.5-.44,2.01-1.24,3.92-2.36,5.64,1.81,.57,5.97,2.06,8.18,3.46Z"/><path class="cls-2" d="M118.12,39.38h-4.37c-1.16,0-2.27,.46-3.09,1.28-.82,.82-1.29,1.93-1.29,3.09s.47,2.27,1.29,3.09c.82,.82,1.93,1.28,3.09,1.28h4.37c1.17,0,2.28-.46,3.1-1.28,.82-.82,1.28-1.93,1.28-3.09s-.46-2.27-1.28-3.09c-.82-.82-1.93-1.28-3.1-1.28Z"/><path class="cls-3" d="M78.75,13.12c1.16,0,2.27-.46,3.09-1.28,.82-.82,1.28-1.93,1.28-3.09V4.38c0-1.16-.46-2.27-1.28-3.09-.82-.82-1.93-1.28-3.09-1.28s-2.27,.46-3.09,1.28c-.82,.82-1.29,1.93-1.29,3.09v4.38c0,1.16,.47,2.27,1.29,3.09,.82,.82,1.93,1.28,3.09,1.28Z"/><path class="cls-6" d="M103.07,23.41c.58,0,1.16-.12,1.69-.34,.53-.23,1.02-.55,1.42-.97l3.06-3.15c.71-.85,1.07-1.93,1.01-3.03-.05-1.1-.53-2.14-1.32-2.91-.79-.77-1.84-1.21-2.94-1.24-1.1-.03-2.18,.36-3,1.1l-3.07,3.15c-.59,.62-.98,1.4-1.13,2.24-.16,.84-.06,1.71,.28,2.49,.33,.79,.89,1.46,1.6,1.93,.71,.47,1.55,.73,2.4,.73Z"/><path class="cls-5" d="M52.15,21.88c.4,.46,.9,.83,1.46,1.09,.56,.26,1.16,.39,1.78,.4,1.08,0,2.12-.38,2.93-1.09,.43-.38,.79-.85,1.04-1.37,.25-.52,.4-1.09,.43-1.66,.03-.58-.05-1.16-.24-1.7-.19-.55-.49-1.05-.88-1.48l-2.89-2.93c-.78-.81-1.84-1.29-2.97-1.34s-2.23,.34-3.07,1.09c-.85,.75-1.38,1.79-1.47,2.91-.1,1.12,.24,2.24,.95,3.12l2.93,2.98Z"/></g></svg>
