<?xml version="1.0" encoding="UTF-8"?><svg id="Layer_2" xmlns="http://www.w3.org/2000/svg" xmlns:xlink="http://www.w3.org/1999/xlink" viewBox="0 0 148.75 95.66"><defs><style>.cls-1{fill:url(#linear-gradient);}</style><linearGradient id="linear-gradient" x1="74.37" y1="414.14" x2="74.37" y2="318.49" gradientTransform="translate(0 414.14) scale(1 -1)" gradientUnits="userSpaceOnUse"><stop offset="0" stop-color="#a1d2fa"/><stop offset="1" stop-color="#dce2f6"/></linearGradient></defs><g id="Layer_1-2"><path class="cls-1" d="M122.56,31.26c-4.05-9.39-10.78-17.37-19.35-22.93C94.63,2.77,84.59-.12,74.37,.02c-12.3-.35-24.3,3.83-33.71,11.74-9.42,7.91-15.62,19.01-17.4,31.18-6.33,.91-12.15,4.04-16.4,8.82C2.6,56.55,.18,62.68,0,69.08c.25,7.27,3.36,14.15,8.67,19.13,5.31,4.98,12.38,7.65,19.64,7.44h24.81c1.41,0,2.76-.56,3.76-1.56,1-1,1.56-2.35,1.56-3.76s-.56-2.76-1.56-3.76c-1-1-2.35-1.56-3.76-1.56H28.31c-4.44,.2-8.79-1.36-12.12-4.34-3.31-2.98-5.31-7.15-5.57-11.6,.26-4.45,2.26-8.62,5.57-11.6,3.32-2.98,7.67-4.54,12.12-4.34,1.41,0,2.76-.56,3.76-1.56,1-1,1.56-2.35,1.56-3.76,0-20.51,18.27-37.19,40.74-37.19,8.52-.2,16.89,2.29,23.92,7.12,7.03,4.83,12.35,11.74,15.24,19.77,.3,.96,.88,1.82,1.64,2.46,.78,.65,1.71,1.07,2.71,1.2,5.44,.58,10.5,3.1,14.22,7.12,3.72,4.01,5.85,9.24,6.02,14.71-.21,6.03-2.79,11.73-7.19,15.85s-10.26,6.33-16.29,6.15h-40.26c-1.41,0-2.76,.56-3.76,1.56-.98,1-1.55,2.35-1.55,3.76s.56,2.76,1.55,3.76c1,1,2.35,1.56,3.76,1.56h40.26c8.85,.17,17.4-3.16,23.78-9.27,6.39-6.11,10.11-14.5,10.33-23.35-.14-7.47-2.8-14.68-7.55-20.45-4.76-5.77-11.32-9.76-18.64-11.32Z"/></g></svg>