<?xml version="1.0" encoding="UTF-8"?><svg id="Layer_2" xmlns="http://www.w3.org/2000/svg" xmlns:xlink="http://www.w3.org/1999/xlink" viewBox="0 0 137.19 88.66"><defs><style>.cls-1{fill:url(#linear-gradient);}.cls-2{fill:url(#linear-gradient-2);}</style><linearGradient id="linear-gradient" x1="93.3" y1="409.6" x2="93.3" y2="349.45" gradientTransform="translate(0 409.6) scale(1 -1)" gradientUnits="userSpaceOnUse"><stop offset="0" stop-color="#9ea8e1"/><stop offset="1" stop-color="#d0d7f1"/></linearGradient><linearGradient id="linear-gradient-2" x1="54.38" y1="390.88" x2="54.38" y2="320.94" gradientTransform="translate(0 409.6) scale(1 -1)" gradientUnits="userSpaceOnUse"><stop offset="0" stop-color="#a1d2fa"/><stop offset="1" stop-color="#dce2f6"/></linearGradient></defs><g id="Layer_1-2"><path class="cls-1" d="M72.3,5.24c-5.39,3.5-9.63,8.51-12.17,14.42-4.6,.98-10.72,3.94-10.72,3.94l15.36,1.55s.85-.94,1.04-1.55c1.81-5.05,5.16-9.39,9.58-12.43,4.42-3.03,9.68-4.6,15.04-4.47,14.13,0,25.62,10.49,25.62,23.38,0,.89,.35,1.73,.98,2.36,.62,.63,1.47,.98,2.36,.98,2.8-.13,5.54,.85,7.62,2.73,2.08,1.88,3.34,4.5,3.5,7.29-.16,2.8-1.42,5.42-3.5,7.29-2.08,1.88-4.82,2.86-7.62,2.73h-15.6c-.89,0-1.74,.35-2.36,.98-.63,.63-.98,1.48-.98,2.36s.35,1.73,.98,2.36c.62,.63,1.47,.98,2.36,.98h15.6c4.57,.13,9.01-1.55,12.35-4.68,3.34-3.13,5.3-7.45,5.45-12.03-.1-4.03-1.63-7.88-4.31-10.89-2.68-3.01-6.33-4.97-10.32-5.55-1.12-7.65-5.01-14.63-10.93-19.61C105.71,2.42,98.16-.21,90.43,.01c-6.43-.09-12.74,1.73-18.13,5.23Z"/><path class="cls-2" d="M89.61,41.57c-2.96-6.86-7.88-12.7-14.15-16.76s-13.61-6.18-21.08-6.08c-8.99-.26-17.77,2.8-24.65,8.58-6.89,5.79-11.42,13.9-12.72,22.8-4.63,.67-8.88,2.95-11.99,6.45-3.12,3.5-4.89,7.98-5.02,12.66,.18,5.32,2.46,10.34,6.34,13.98,3.88,3.64,9.05,5.59,14.36,5.44h18.14c1.03,0,2.02-.41,2.75-1.14,.73-.73,1.14-1.72,1.14-2.75s-.41-2.02-1.14-2.75c-.73-.73-1.72-1.14-2.75-1.14H20.7c-3.25,.15-6.43-.99-8.86-3.17-2.42-2.18-3.88-5.23-4.07-8.48,.19-3.25,1.65-6.3,4.07-8.48,2.43-2.18,5.61-3.32,8.86-3.17,1.03,0,2.02-.41,2.75-1.14,.73-.73,1.14-1.72,1.14-2.75,0-14.99,13.36-27.19,29.79-27.19,6.23-.15,12.35,1.67,17.49,5.2,5.14,3.53,9.03,8.58,11.14,14.45,.22,.7,.64,1.33,1.2,1.8,.57,.47,1.25,.78,1.98,.88,3.98,.42,7.68,2.27,10.4,5.21,2.72,2.93,4.28,6.76,4.4,10.76-.15,4.41-2.04,8.57-5.26,11.59s-7.5,4.63-11.91,4.49h-29.44c-1.03,0-2.02,.41-2.75,1.14-.72,.73-1.13,1.72-1.13,2.75s.41,2.02,1.13,2.75c.73,.73,1.72,1.14,2.75,1.14h29.44c6.47,.12,12.72-2.31,17.39-6.78,4.67-4.47,7.39-10.6,7.55-17.07-.1-5.46-2.05-10.74-5.52-14.95-3.48-4.22-8.28-7.13-13.63-8.27Z"/></g></svg>