<?xml version="1.0" encoding="UTF-8"?><svg id="Layer_2" xmlns="http://www.w3.org/2000/svg" xmlns:xlink="http://www.w3.org/1999/xlink" viewBox="0 0 91.96 122.48"><defs><style>.cls-1{fill:url(#linear-gradient);}.cls-2{fill:url(#linear-gradient-3);}.cls-3{fill:url(#linear-gradient-2);}</style><linearGradient id="linear-gradient" x1="67.8" y1="-196.8" x2="67.8" y2="-258.03" gradientTransform="translate(0 -196.8) scale(1 -1)" gradientUnits="userSpaceOnUse"><stop offset="0" stop-color="#7cb1f8"/><stop offset="1" stop-color="#3495e3"/></linearGradient><linearGradient id="linear-gradient-2" x1="30.65" y1="-244.83" x2="30.65" y2="-319.28" xlink:href="#linear-gradient"/><linearGradient id="linear-gradient-3" x1="24.18" y1="-279.88" x2="24.18" y2="-306.17" xlink:href="#linear-gradient"/></defs><g id="Layer_1-2"><path class="cls-1" d="M70.34,.81c-.74-.53-1.63-.81-2.54-.81s-1.8,.28-2.54,.81c-5.51,3.85-10.29,8.67-14.09,14.22-.38,.47-.65,1.02-.8,1.6-.16,.58-.19,1.19-.1,1.79,.09,.6,.3,1.17,.62,1.68,.32,.51,.74,.95,1.24,1.29,.5,.34,1.06,.57,1.65,.68,.59,.11,1.2,.1,1.79-.04,.59-.14,1.14-.39,1.62-.75s.89-.81,1.19-1.34c2.63-3.81,5.8-7.21,9.41-10.11,13.56,10.98,17.85,25.77,13.87,33.86-1.33,2.55-3.32,4.71-5.76,6.24-2.44,1.54-5.23,2.4-8.11,2.51-2.88-.1-5.68-.97-8.11-2.51-2.44-1.54-4.42-3.69-5.76-6.24-1.2-2.61-1.7-5.49-1.44-8.36,.05-.57-.02-1.15-.2-1.7-.18-.55-.46-1.06-.83-1.49-.37-.44-.83-.8-1.34-1.06-.51-.26-1.07-.42-1.65-.47-.57-.05-1.15,.02-1.7,.2-.55,.18-1.06,.46-1.49,.84-.44,.37-.8,.83-1.06,1.34-.26,.51-.42,1.07-.47,1.65-.4,4.42,.37,8.87,2.23,12.91,2.07,4.05,5.2,7.46,9.05,9.87,3.85,2.41,8.28,3.73,12.83,3.83,4.54-.09,8.97-1.42,12.83-3.83,3.85-2.41,6.98-5.82,9.05-9.87,6.52-13.96-1.58-34.08-19.38-46.72Z"/><path class="cls-3" d="M56.87,87.48c-1.16,0-2.27,.46-3.09,1.28-.82,.82-1.28,1.93-1.28,3.09,.25,3.44-.43,6.89-1.97,9.97-2.01,3.54-4.89,6.49-8.38,8.58s-7.46,3.23-11.52,3.32c-4.04-.08-7.99-1.2-11.47-3.26-3.48-2.05-6.37-4.97-8.39-8.47-5.56-10.63,.57-30.14,19.86-44.19,6.96,4.94,12.77,11.31,17.06,18.68,.29,.5,.67,.94,1.13,1.29,.46,.35,.98,.61,1.53,.76,.56,.15,1.14,.19,1.71,.12,.57-.07,1.12-.26,1.62-.55,.5-.29,.94-.67,1.29-1.13,.35-.46,.61-.98,.76-1.54,.15-.56,.19-1.14,.12-1.71-.07-.57-.26-1.12-.55-1.62-5.46-9.43-13.08-17.44-22.22-23.36-.72-.48-1.56-.73-2.43-.73s-1.71,.26-2.43,.73C5.29,64.07-5.78,89.18,3.01,105.98c2.75,4.93,6.75,9.04,11.6,11.94,4.85,2.89,10.37,4.47,16.01,4.55,5.64-.08,11.15-1.64,15.99-4.52,4.84-2.88,8.85-6.98,11.61-11.89,2.26-4.38,3.31-9.29,3.02-14.22,0-1.16-.46-2.27-1.28-3.09s-1.93-1.28-3.09-1.28Z"/><path class="cls-2" d="M17.98,83.1c-1.15-.12-2.3,.21-3.2,.93-.9,.72-1.48,1.77-1.61,2.92-.36,3.03-.04,6.09,.93,8.98,.97,2.89,2.56,5.53,4.67,7.73,3.03,3.05,6.95,5.04,11.2,5.69h.66c1.16,.09,2.31-.29,3.19-1.05,.88-.76,1.43-1.84,1.51-3,.09-1.16-.29-2.31-1.05-3.19s-1.84-1.43-3-1.51c-2.37-.36-4.57-1.44-6.3-3.11-1.16-1.28-2.04-2.79-2.58-4.43-.54-1.65-.71-3.38-.53-5.1,.07-.58,.02-1.16-.14-1.71-.16-.56-.43-1.08-.79-1.53-.36-.45-.81-.83-1.32-1.1-.51-.28-1.07-.45-1.64-.51Z"/></g></svg>