<?xml version="1.0" encoding="UTF-8"?><svg id="Layer_2" xmlns="http://www.w3.org/2000/svg" xmlns:xlink="http://www.w3.org/1999/xlink" viewBox="0 0 113.73 122.5"><defs><style>.cls-1{fill:url(#linear-gradient);}.cls-2{fill:url(#linear-gradient-3);}.cls-3{fill:url(#linear-gradient-4);}.cls-4{fill:url(#linear-gradient-2);}</style><linearGradient id="linear-gradient" x1="56.87" y1="443.2" x2="56.87" y2="373.17" gradientTransform="translate(0 443.2) scale(1 -1)" gradientUnits="userSpaceOnUse"><stop offset="0" stop-color="#9ea8e1"/><stop offset="1" stop-color="#d0d7f1"/></linearGradient><linearGradient id="linear-gradient-2" x1="21.87" y1="355.7" x2="21.87" y2="320.7" gradientTransform="translate(0 443.2) scale(1 -1)" gradientUnits="userSpaceOnUse"><stop offset="0" stop-color="#7cb1f8"/><stop offset="1" stop-color="#3495e3"/></linearGradient><linearGradient id="linear-gradient-3" x1="91.78" x2="91.78" xlink:href="#linear-gradient-2"/><linearGradient id="linear-gradient-4" x1="56.87" y1="362.56" x2="56.87" y2="326.73" xlink:href="#linear-gradient-2"/></defs><g id="Layer_1-2"><path class="cls-1" d="M93.65,22.55c-3.27-6.93-8.5-12.75-15.03-16.75C72.09,1.79,64.53-.21,56.87,.02,36.7,.02,19.99,13.58,17.76,30.99c-4.76,.62-9.15,2.9-12.4,6.44C2.12,40.96,.22,45.53,0,50.32c.31,5.51,2.78,10.67,6.87,14.35,4.1,3.69,9.49,5.61,15,5.33h17.5c1.16,0,2.27-.46,3.09-1.28,.82-.82,1.28-1.93,1.28-3.09s-.46-2.27-1.28-3.09c-.82-.82-1.93-1.28-3.09-1.28H21.87c-3.18,.26-6.34-.74-8.79-2.79-2.45-2.04-4.01-4.97-4.33-8.15,.32-3.18,1.88-6.1,4.33-8.15,2.45-2.04,5.61-3.05,8.79-2.79,1.16,0,2.27-.46,3.09-1.28,.82-.82,1.28-1.93,1.28-3.09,0-14.48,13.74-26.25,30.62-26.25,6.27-.22,12.46,1.49,17.72,4.9,5.27,3.41,9.36,8.36,11.72,14.17,.27,.78,.75,1.47,1.39,1.99,.64,.52,1.42,.85,2.24,.94,3.92,.27,7.62,1.96,10.39,4.75,2.77,2.79,4.43,6.5,4.66,10.43-.31,4.34-2.33,8.38-5.6,11.25-3.28,2.87-7.55,4.32-11.89,4.06h-30.62c-1.16,0-2.27,.46-3.09,1.28-.82,.82-1.28,1.93-1.28,3.09s.46,2.27,1.28,3.09c.82,.82,1.93,1.28,3.09,1.28h30.62c6.67,.27,13.17-2.1,18.09-6.61,4.92-4.51,7.85-10.78,8.16-17.45-.19-5.6-2.28-10.97-5.93-15.22-3.65-4.25-8.64-7.14-14.15-8.18Z"/><path class="cls-4" d="M24.72,88.55c-.79-.68-1.8-1.05-2.84-1.05s-2.05,.37-2.84,1.05c-9.1,7.7-12.86,19.86-8.53,27.51,1.29,2.27,3.27,4.07,5.64,5.16,1.8,.84,3.75,1.27,5.73,1.27s3.94-.43,5.73-1.27c2.37-1.09,4.35-2.89,5.64-5.16,4.33-7.65,.57-19.82-8.53-27.51Zm.92,23.23c-.43,.66-1.04,1.19-1.75,1.53-.63,.28-1.3,.43-1.99,.43s-1.36-.14-1.99-.43c-.71-.33-1.3-.86-1.71-1.53-1.53-2.41-.7-8.49,3.67-13.69,1.77,1.75,3.05,3.94,3.71,6.34,.66,2.4,.68,4.94,.06,7.35Z"/><path class="cls-2" d="M94.7,88.55c-.79-.68-1.8-1.05-2.84-1.05s-2.05,.37-2.84,1.05c-9.1,7.79-12.86,19.86-8.75,27.51,1.29,2.27,3.27,4.07,5.64,5.16,1.79,.84,3.75,1.27,5.73,1.27s3.94-.43,5.73-1.27c2.38-1.09,4.35-2.89,5.64-5.16,4.55-7.65,.79-19.82-8.31-27.51Zm.92,23.23c-.43,.66-1.04,1.19-1.75,1.53-.62,.28-1.3,.43-1.99,.43s-1.36-.14-1.99-.43c-.71-.33-1.3-.86-1.71-1.53-1.49-2.58-.57-8.49,3.72-13.69,1.76,1.76,3.03,3.95,3.68,6.35,.65,2.4,.66,4.93,.03,7.34Z"/><path class="cls-3" d="M59.78,81.71c-.81-.69-1.84-1.08-2.91-1.08s-2.1,.38-2.91,1.08c-9.32,7.97-13.17,20.33-8.73,28.17,1.33,2.32,3.35,4.17,5.78,5.29,1.84,.86,3.84,1.3,5.87,1.3s4.03-.44,5.87-1.3c2.43-1.11,4.45-2.96,5.78-5.29,4.43-7.84,.58-20.29-8.73-28.17Zm.94,23.78c-.44,.67-1.06,1.22-1.79,1.57-.64,.29-1.34,.44-2.04,.44s-1.4-.15-2.04-.44c-.73-.34-1.33-.88-1.75-1.57-1.52-2.64-.58-8.69,3.81-14.02,1.8,1.8,3.1,4.04,3.77,6.5,.67,2.46,.68,5.05,.04,7.52Z"/></g></svg>