<?xml version="1.0" encoding="UTF-8"?><svg id="Layer_2" xmlns="http://www.w3.org/2000/svg" xmlns:xlink="http://www.w3.org/1999/xlink" viewBox="0 0 113.75 122.52"><defs><style>.cls-1{fill:url(#linear-gradient);}.cls-2{fill:url(#linear-gradient-2);fill-rule:evenodd;}</style><linearGradient id="linear-gradient" x1="56.88" y1="-196.8" x2="56.88" y2="-319.32" gradientTransform="translate(0 -196.8) scale(1 -1)" gradientUnits="userSpaceOnUse"><stop offset="0" stop-color="#9ea8e1"/><stop offset="1" stop-color="#d0d7f1"/></linearGradient><linearGradient id="linear-gradient-2" x1="50.25" y1="-240.57" x2="50.25" y2="-319.32" gradientTransform="translate(0 -196.8) scale(1 -1)" gradientUnits="userSpaceOnUse"><stop offset="0" stop-color="#ffb831"/><stop offset="1" stop-color="#fada69"/></linearGradient></defs><g id="Layer_1-2"><path class="cls-1" d="M93.67,22.55c-3.27-6.93-8.5-12.75-15.04-16.75C72.1,1.79,64.54-.21,56.88,.02,36.71,.02,19.99,13.58,17.76,30.99c-4.76,.62-9.15,2.9-12.4,6.44S.22,45.53,0,50.33c.31,5.51,2.78,10.67,6.88,14.36,4.1,3.69,9.49,5.61,15,5.33h8.18l-3.81,16.8c-.14,.65-.13,1.32,.03,1.96,.16,.64,.46,1.24,.88,1.75,.42,.51,.95,.92,1.55,1.19,.6,.27,1.26,.41,1.92,.4h7.96l-3.59,25.42c-.14,.97,.05,1.96,.55,2.81s1.26,1.51,2.17,1.87c.53,.21,1.09,.31,1.66,.31,.71,0,1.4-.17,2.03-.5,.62-.33,1.16-.8,1.56-1.38l30.62-43.75c.43-.64,.69-1.38,.74-2.15,.05-.77-.1-1.54-.43-2.23-.35-.74-.9-1.36-1.59-1.8-.69-.44-1.49-.68-2.3-.69h-11.46l6.69-20.52c.21-.64,.27-1.33,.17-1.99-.1-.67-.35-1.31-.74-1.86-.39-.56-.9-1.01-1.49-1.34-.59-.32-1.25-.51-1.93-.54h-21.88c-1.01-.03-2,.3-2.8,.92-.8,.62-1.35,1.5-1.58,2.49l-3.02,14.09h-10.11c-3.18,.26-6.34-.75-8.79-2.79-2.45-2.04-4.01-4.97-4.33-8.15,.32-3.18,1.88-6.1,4.33-8.15s5.61-3.05,8.79-2.79c1.16,0,2.27-.46,3.09-1.28,.82-.82,1.28-1.93,1.28-3.09,0-14.48,13.74-26.25,30.62-26.25,6.27-.22,12.46,1.49,17.72,4.9,5.27,3.41,9.36,8.36,11.72,14.17,.27,.78,.75,1.47,1.39,1.99,.64,.52,1.42,.85,2.24,.94,3.92,.27,7.62,1.96,10.39,4.75,2.77,2.79,4.43,6.5,4.66,10.43-.31,4.34-2.33,8.38-5.6,11.25s-7.55,4.33-11.9,4.06h-4.38c-1.16,0-2.27,.46-3.09,1.28-.82,.82-1.28,1.93-1.28,3.09s.46,2.27,1.28,3.09c.82,.82,1.93,1.28,3.09,1.28h4.38c6.67,.27,13.17-2.11,18.09-6.61,4.92-4.51,7.85-10.78,8.16-17.45-.19-5.6-2.28-10.97-5.93-15.23-3.65-4.26-8.64-7.14-14.15-8.18Zm-50.79,29.97h12.16l-6.69,20.52c-.21,.66-.27,1.35-.16,2.04,.11,.68,.37,1.33,.78,1.89,.4,.56,.94,1.01,1.55,1.33s1.3,.48,1.99,.48h9.1l-15.31,21.88,1.84-12.51c.09-.62,.04-1.26-.14-1.86-.18-.6-.49-1.16-.91-1.64-.41-.47-.93-.85-1.5-1.11-.57-.26-1.2-.39-1.83-.38h-7.57l6.69-30.62Z"/><path class="cls-2" d="M30.06,70.02l-3.81,16.8c-.14,.65-.13,1.32,.03,1.96,.16,.64,.46,1.24,.88,1.75,.42,.51,.95,.92,1.55,1.19s1.26,.41,1.92,.4h7.96l-3.59,25.42c-.14,.97,.05,1.96,.55,2.81s1.26,1.51,2.17,1.87c.53,.21,1.09,.31,1.66,.31,.71,0,1.4-.17,2.03-.5,.62-.33,1.16-.8,1.56-1.38l30.62-43.75c.43-.64,.69-1.38,.74-2.15,.05-.77-.1-1.54-.43-2.23-.35-.74-.9-1.36-1.59-1.8-.69-.44-1.49-.68-2.3-.69h-11.46l6.69-20.52c.21-.64,.27-1.33,.17-1.99-.1-.67-.35-1.31-.74-1.86-.39-.56-.9-1.01-1.49-1.34-.59-.33-1.25-.51-1.93-.54h-21.88c-1.01-.02-2,.3-2.8,.92-.8,.62-1.36,1.5-1.58,2.49l-4.94,22.84Zm24.98-17.5h-12.16l-6.69,30.62h7.57c.63,0,1.25,.12,1.83,.38,.57,.26,1.09,.63,1.5,1.11,.42,.47,.73,1.03,.91,1.64,.18,.6,.23,1.24,.14,1.86l-1.84,12.51,15.31-21.88h-9.1c-.69,0-1.37-.16-1.99-.48s-1.15-.77-1.55-1.33c-.41-.56-.67-1.21-.78-1.89-.11-.68-.05-1.38,.16-2.04l6.69-20.52Z"/></g></svg>