<?xml version="1.0" encoding="UTF-8"?><svg id="Layer_2" xmlns="http://www.w3.org/2000/svg" xmlns:xlink="http://www.w3.org/1999/xlink" viewBox="0 0 114.67 106.4"><defs><style>.cls-1{fill:url(#linear-gradient);}</style><linearGradient id="linear-gradient" x1="57.34" y1="-213.6" x2="57.34" y2="-320" gradientTransform="translate(0 -213.6) scale(1 -1)" gradientUnits="userSpaceOnUse"><stop offset="0" stop-color="#d5dbf3"/><stop offset="1" stop-color="#a0cff6"/></linearGradient></defs><g id="Layer_1-2"><path class="cls-1" d="M108.13,53.88l5.33-5.28c.77-.77,1.2-1.82,1.2-2.91s-.43-2.14-1.2-2.91c-.77-.77-1.82-1.2-2.91-1.2s-2.14,.43-2.91,1.2l-6.96,7h-6.5l7.36-9.82c.33-.43,.56-.92,.69-1.44,.14-.52,.17-1.06,.09-1.59-.07-.53-.25-1.04-.53-1.51-.27-.46-.63-.87-1.06-1.19-.44-.32-.92-.56-1.45-.69-.52-.13-1.06-.16-1.59-.09-.53,.08-1.04,.26-1.51,.53-.46,.27-.86,.64-1.19,1.07l-11.05,14.74h-10.23c-.42,.01-.84,.1-1.23,.25-.87-.27-1.81-.24-2.66,.09-.86,.33-1.58,.93-2.05,1.71l-5.81,9.99h-9.25l-4.75-8.19,3.81-8.19h13.75c.49-.02,.97-.11,1.43-.29h.29c.42-.21,.8-.47,1.15-.78,.18-.17,.35-.36,.49-.57l6.63-10.64,17.48-.82c1.05-.05,2.04-.51,2.76-1.27,.73-.76,1.13-1.77,1.13-2.83,0-.55-.11-1.1-.33-1.61-.22-.51-.54-.97-.94-1.35-.41-.38-.88-.68-1.4-.87-.52-.19-1.08-.28-1.63-.25l-11.83,.53,3.31-5.36,9.62-1.8c1.09-.2,2.05-.83,2.68-1.73,.62-.91,.86-2.03,.66-3.12-.2-1.08-.82-2.05-1.73-2.67-.91-.63-2.03-.86-3.12-.66l-7.37,1.39-1.39-7.33c-.2-1.09-.83-2.05-1.74-2.67-.9-.63-2.03-.86-3.11-.66-1.09,.2-2.05,.82-2.67,1.73-.63,.91-.87,2.03-.67,3.12l1.84,9.83-3.35,5.69-4.1-11.83c-.14-.54-.39-1.05-.74-1.49s-.78-.8-1.28-1.07c-.49-.26-1.03-.43-1.59-.47-.56-.05-1.12,.02-1.66,.2-.53,.18-1.02,.47-1.43,.84-.42,.38-.75,.83-.98,1.35-.23,.51-.36,1.06-.37,1.62,0,.56,.1,1.12,.32,1.64l6.3,18.38-4.95,7.66h-11.83v-.33l-5.73-8.47,5.93-17.44c.32-1.05,.21-2.18-.3-3.15-.51-.97-1.39-1.69-2.44-2.01-1.05-.32-2.18-.21-3.15,.3-.96,.51-1.69,1.39-2.01,2.44l-4.09,11.59-3.64-5.36,1.84-9.7c.1-.54,.09-1.09-.02-1.62-.12-.54-.34-1.04-.65-1.49-.31-.45-.7-.83-1.16-1.13-.46-.3-.97-.5-1.51-.6-.54-.1-1.09-.09-1.62,.02-.54,.11-1.04,.33-1.5,.64-.45,.31-.83,.71-1.13,1.16-.3,.46-.5,.97-.6,1.51l-.94,7.12-7.53-1.39c-.54-.1-1.09-.1-1.63,.01-.53,.11-1.04,.33-1.5,.63-.91,.62-1.54,1.58-1.74,2.67-.21,1.09,.02,2.21,.64,3.12,.63,.91,1.59,1.54,2.67,1.75l9.74,1.84,3.65,5.36-12.28-.57c-1.09,0-2.13,.43-2.9,1.2-.77,.77-1.2,1.81-1.2,2.89s.43,2.13,1.2,2.9,1.81,1.2,2.9,1.2l18.42,.86,5.36,8.15-3.77,8.19h-9.98l-11.06-14.74c-.65-.87-1.62-1.44-2.69-1.6-1.08-.15-2.17,.13-3.04,.78-.87,.65-1.44,1.62-1.59,2.7-.16,1.08,.12,2.17,.77,3.04l7.37,10.07h-6.51l-6.96-7c-.77-.77-1.81-1.2-2.9-1.2s-2.14,.43-2.91,1.2C.44,43.56,.01,44.6,.01,45.69s.43,2.14,1.2,2.91l5.32,5.28-5.32,5.28c-.38,.38-.69,.83-.9,1.33-.2,.5-.31,1.03-.31,1.57s.11,1.07,.31,1.57c.21,.5,.52,.95,.9,1.33,.38,.38,.83,.69,1.33,.9,.5,.21,1.04,.31,1.58,.31s1.07-.11,1.57-.31c.5-.21,.95-.51,1.33-.9l6.96-7h6.51l-7.37,9.83c-.65,.87-.93,1.96-.77,3.04,.15,1.07,.72,2.04,1.59,2.7,.71,.53,1.57,.82,2.46,.82,.63,0,1.26-.15,1.83-.43,.57-.29,1.06-.7,1.44-1.21l11.06-14.74h10.23l4.3,7.41-5.41,7.94-18.34,.78c-1.08,0-2.12,.43-2.89,1.2s-1.2,1.81-1.2,2.9,.43,2.13,1.2,2.89,1.81,1.2,2.89,1.2l12.29-.57-3.65,5.36-9.7,1.84c-1.09,.1-2.09,.63-2.78,1.47-.69,.84-1.03,1.92-.92,3.01,.1,1.09,.63,2.09,1.47,2.78,.84,.7,1.92,1.03,3.01,.92,.24,.04,.49,.04,.74,0l7.36-1.39,1.4,7.37c.18,.95,.69,1.8,1.44,2.4,.75,.61,1.69,.93,2.65,.91h.78c.53-.1,1.03-.3,1.48-.59,.46-.29,.84-.67,1.15-1.12,.3-.45,.52-.95,.63-1.47,.11-.53,.11-1.07,.01-1.6l-1.88-9.74,3.97-5.48,4.09,11.62c.28,.81,.8,1.52,1.5,2.02,.7,.5,1.53,.77,2.39,.77,.45-.01,.89-.09,1.31-.25,1.03-.35,1.87-1.1,2.35-2.07,.47-.97,.54-2.1,.19-3.12l-5.98-17.4,5.24-7.94h11.51l5.4,7.94-5.94,17.44c-.34,1.02-.27,2.12,.2,3.09,.47,.97,1.29,1.71,2.3,2.07,.42,.15,.86,.24,1.31,.25,.89,.05,1.78-.2,2.52-.7,.73-.5,1.29-1.23,1.57-2.08l4.1-11.62,3.64,5.36-1.84,9.74c-.1,.53-.1,1.07,.01,1.6,.11,.53,.33,1.03,.63,1.47,.31,.45,.69,.83,1.15,1.12,.45,.29,.95,.5,1.48,.59h.78c.96,.02,1.9-.3,2.65-.91,.75-.61,1.26-1.46,1.44-2.4l1.4-7.37,7.32,1.39c.26,.04,.52,.04,.78,0,1.09,.1,2.17-.23,3.01-.92,.84-.7,1.37-1.7,1.47-2.78,.11-1.08-.22-2.17-.92-3.01-.69-.84-1.69-1.37-2.78-1.47l-9.7-1.84-3.69-5.36,12.28,.57h.05c1.08,0,2.12-.43,2.89-1.2,.77-.77,1.2-1.81,1.2-2.89s-.43-2.13-1.2-2.9c-.77-.77-1.81-1.2-2.89-1.2l-18.38-.86-5.78-8.43-.2-.25,3.89-6.47h10.23l11.05,14.74c.39,.51,.88,.92,1.45,1.21,.57,.28,1.19,.43,1.83,.43,.88,0,1.75-.29,2.46-.82,.43-.32,.79-.73,1.06-1.19,.28-.46,.46-.97,.53-1.51,.08-.53,.05-1.07-.09-1.6-.13-.52-.36-1.01-.69-1.44l-7.36-9.83h6.5l6.96,7c.38,.38,.84,.69,1.34,.9,.49,.21,1.03,.31,1.57,.31s1.08-.11,1.57-.31c.5-.21,.96-.51,1.34-.9,.38-.38,.68-.83,.89-1.33,.21-.5,.32-1.03,.32-1.57s-.11-1.08-.32-1.57c-.21-.5-.51-.95-.89-1.33l-5.33-5.28Z"/></g></svg>