<?xml version="1.0" encoding="UTF-8"?><svg id="Layer_2" xmlns="http://www.w3.org/2000/svg" xmlns:xlink="http://www.w3.org/1999/xlink" viewBox="0 0 114.66 101.27"><defs><style>.cls-1{fill:url(#linear-gradient);}.cls-2{fill:url(#linear-gradient-3);}.cls-3{fill:url(#linear-gradient-4);}.cls-4{fill:url(#linear-gradient-2);}</style><linearGradient id="linear-gradient" x1="57.33" y1="-196.59" x2="57.33" y2="-267.2" gradientTransform="translate(0 -196.59) scale(1 -1)" gradientUnits="userSpaceOnUse"><stop offset="0" stop-color="#9ea8e1"/><stop offset="1" stop-color="#d0d7f1"/></linearGradient><linearGradient id="linear-gradient-2" x1="69.62" y1="-275.46" x2="69.62" y2="-284.21" gradientTransform="translate(0 -196.59) scale(1 -1)" gradientUnits="userSpaceOnUse"><stop offset="0" stop-color="#7cb1f8"/><stop offset="1" stop-color="#3495e3"/></linearGradient><linearGradient id="linear-gradient-3" x1="36.85" x2="36.85" xlink:href="#linear-gradient-2"/><linearGradient id="linear-gradient-4" x1="53.24" y1="-289.11" x2="53.24" y2="-297.86" xlink:href="#linear-gradient-2"/></defs><g id="Layer_1-2"><path class="cls-1" d="M94.42,22.73c-3.3-6.98-8.57-12.85-15.16-16.89S65.05-.22,57.33,.02C37,.02,20.15,13.69,17.9,31.24c-4.8,.63-9.22,2.92-12.5,6.49C2.13,41.3,.22,45.9,0,50.73c.31,5.55,2.8,10.75,6.93,14.47,4.13,3.72,9.57,5.65,15.12,5.37h17.64c1.17,0,2.29-.46,3.12-1.29,.83-.83,1.29-1.95,1.29-3.12s-.46-2.29-1.29-3.12c-.83-.83-1.95-1.29-3.12-1.29H22.05c-3.21,.26-6.39-.75-8.86-2.81-2.47-2.06-4.04-5.01-4.37-8.21,.32-3.2,1.89-6.15,4.37-8.21,2.47-2.06,5.66-3.07,8.86-2.81,1.17,0,2.29-.46,3.12-1.29,.83-.83,1.29-1.95,1.29-3.12,0-14.6,13.85-26.46,30.87-26.46,6.32-.22,12.56,1.5,17.87,4.94,5.31,3.44,9.43,8.42,11.81,14.28,.27,.79,.76,1.48,1.4,2.01,.65,.52,1.43,.85,2.26,.95,3.96,.27,7.68,1.98,10.47,4.79,2.79,2.82,4.46,6.55,4.7,10.51-.32,4.38-2.35,8.45-5.65,11.34-3.3,2.89-7.61,4.36-11.99,4.09h-30.87c-1.17,0-2.29,.46-3.12,1.29-.83,.83-1.29,1.95-1.29,3.12s.46,2.29,1.29,3.12c.83,.83,1.95,1.29,3.12,1.29h30.87c6.72,.27,13.28-2.12,18.24-6.67,4.96-4.54,7.91-10.87,8.22-17.59-.19-5.65-2.3-11.06-5.98-15.35-3.68-4.29-8.71-7.2-14.26-8.24Z"/><path class="cls-4" d="M81.89,78.87h-24.57c-1.08,0-2.12,.46-2.89,1.28-.77,.82-1.2,1.93-1.2,3.09s.43,2.27,1.2,3.09c.77,.82,1.81,1.28,2.89,1.28h24.57c1.09,0,2.13-.46,2.9-1.28,.77-.82,1.2-1.93,1.2-3.09s-.43-2.27-1.2-3.09c-.77-.82-1.81-1.28-2.9-1.28Z"/><path class="cls-2" d="M40.96,78.87h-8.19c-1.09,0-2.13,.46-2.9,1.28-.77,.82-1.2,1.93-1.2,3.09s.43,2.27,1.2,3.09c.77,.82,1.81,1.28,2.9,1.28h8.19c1.08,0,2.12-.46,2.89-1.28,.77-.82,1.2-1.93,1.2-3.09s-.43-2.27-1.2-3.09c-.77-.82-1.81-1.28-2.89-1.28Z"/><path class="cls-3" d="M45.04,92.52c-1.09,0-2.13,.46-2.9,1.28-.76,.82-1.19,1.93-1.19,3.09s.43,2.27,1.19,3.09c.77,.82,1.81,1.28,2.9,1.28h16.38c1.09,0,2.13-.46,2.9-1.28,.76-.82,1.2-1.93,1.2-3.09s-.44-2.27-1.2-3.09c-.77-.82-1.81-1.28-2.9-1.28h-16.38Z"/></g></svg>